<svg id="Layer_1" enable-background="new 0 0 512.024 512.024" height="512" viewBox="0 0 512.024 512.024" width="512" xmlns="http://www.w3.org/2000/svg"><g><g><g fill="#56788b"><path d="m225.822 465.207-16.819 16.813h-171.477v15h174.586c2.087 0 4.032-.865 5.421-2.318l20.938-20.93c1.472-1.391 2.351-3.351 2.351-5.453v-99.336h-15z"/><path d="m170.208 358.8h15v51.184h-15z"/><path d="m170.208 424.976c0-4.143-3.358-7.5-7.5-7.5h-155.182c-4.142 0-7.5 3.357-7.5 7.5s3.358 7.5 7.5 7.5h155.182c4.143 0 7.5-3.358 7.5-7.5z"/><path d="m326.842 358.805h15v51.18h-15z"/><path d="m504.524 417.476h-155.182c-4.143 0-7.5 3.357-7.5 7.5s3.357 7.5 7.5 7.5h155.182c4.143 0 7.5-3.357 7.5-7.5s-3.358-7.5-7.5-7.5z"/><path d="m286.228 465.207v-96.225h-15v99.336c0 2.088.866 4.034 2.32 5.423l20.938 20.93c1.391 1.472 3.35 2.349 5.451 2.349h174.586v-15h-171.476z"/></g><path d="m37.526 467.029h-30c-4.142 0-7.5 3.357-7.5 7.5v29.983c0 4.143 3.358 7.5 7.5 7.5h30c4.142 0 7.5-3.357 7.5-7.5v-29.983c0-4.143-3.358-7.5-7.5-7.5z" fill="#ff4656"/><path d="m504.524 467.03h-30c-4.143 0-7.5 3.357-7.5 7.5v29.982c0 4.143 3.357 7.5 7.5 7.5h30c4.143 0 7.5-3.357 7.5-7.5v-29.982c0-4.143-3.358-7.5-7.5-7.5z" fill="#ff4656"/><g fill="#00cec8"><path d="m349.342 402.485h-30c-4.143 0-7.5 3.357-7.5 7.5v29.982c0 4.143 3.357 7.5 7.5 7.5h30c4.143 0 7.5-3.357 7.5-7.5v-29.982c0-4.143-3.357-7.5-7.5-7.5z"/><path d="m192.708 402.485h-30c-4.143 0-7.5 3.357-7.5 7.5v29.982c0 4.143 3.357 7.5 7.5 7.5h30c4.143 0 7.5-3.357 7.5-7.5v-29.982c0-4.143-3.357-7.5-7.5-7.5z"/></g></g><g><g><path d="m511.995 245.642c-.09 32.42-12.78 62.85-35.73 85.71-13.66 13.6-29.97 23.55-47.77 29.35-.15.05-.29.09-.44.14-11.89 3.84-24.42 5.82-37.26 5.82h-290.17c-5.83 0-11.56-.5-17.13-1.46-43.73-7.46-78.11-43.09-82.93-88.68-5.59-52.86 30.9-100.64 82.39-109.8-.05-1.48-.08-2.96-.08-4.43.17-37.3 13.25-73.7 36.83-102.53 18.42-22.52 42.63-39.66 69.72-49.66h.01c7.59-2.8 15.4-5.05 23.37-6.69 42.57-8.77 86.01-.42 122.31 23.51 34.73 22.91 58.94 57.45 68.64 97.73 61.31 6.57 108.41 58.65 108.24 120.99z" fill="#99e7fa"/><path d="m511.997 245.638c-.09 32.419-12.78 62.858-35.73 85.717-13.77 13.71-30.24 23.709-48.21 29.489 7.59-4.83 14.7-10.57 21.21-17.149 22.95-23.199 35.64-54.098 35.73-86.997.17-63.278-46.93-116.146-108.24-122.815-9.7-40.888-33.91-75.947-68.64-99.196-35.27-23.609-77.28-32.289-118.68-24.589 7.59-2.8 15.4-5.05 23.37-6.69 42.57-8.77 86.01-.42 122.31 23.519 34.73 22.909 58.94 57.448 68.64 97.726 61.31 6.57 108.41 58.648 108.24 120.985z" fill="#4dd4f7"/></g><path d="m389.985 174.442v192.22h-267.92v-192.22c0-15.48 8.59-36.75 49.52-50.16 22.82-7.47 52.81-11.59 84.44-11.59s61.61 4.12 84.44 11.59c40.93 13.41 49.52 34.68 49.52 50.16z" fill="#4dd4f7"/></g><g><path d="m369.96 287.077v68.51c0 27.41-57.33 41.75-113.96 41.75-3.34 0-6.67-.05-10-.15-53.19-1.58-103.96-15.8-103.96-41.6v-68.51z" fill="#dae1ea"/><path d="m369.96 287.077v68.51c0 27.41-57.33 41.75-113.96 41.75-3.34 0-6.67-.05-10-.15 53.18-1.58 103.96-15.8 103.96-41.6v-68.51z" fill="#b9cfdf"/><ellipse cx="255.996" cy="287.08" fill="#eef0f5" rx="113.96" ry="41.753"/><circle cx="255.972" cy="362.615" fill="#90abbd" r="7.501"/><circle cx="217.352" cy="360.304" fill="#ff4656" r="7.501"/><circle cx="294.183" cy="360.304" fill="#00cec8" r="7.501"/><path d="m369.986 174.444v68.51c0 27.41-57.33 41.75-113.96 41.75-3.34 0-6.67-.05-10-.15-53.19-1.58-103.96-15.8-103.96-41.6v-68.51z" fill="#dae1ea"/><path d="m369.986 174.444v68.51c0 27.41-57.33 41.75-113.96 41.75-3.34 0-6.67-.05-10-.15 53.18-1.58 103.96-15.8 103.96-41.6v-68.51z" fill="#b9cfdf"/><ellipse cx="256.022" cy="174.447" fill="#eef0f5" rx="113.96" ry="41.753"/><circle cx="255.998" cy="249.982" fill="#90abbd" r="7.501"/><circle cx="217.378" cy="247.671" fill="#ff4656" r="7.501"/><circle cx="294.209" cy="247.671" fill="#00cec8" r="7.501"/></g></g></svg>