<svg height="511pt" viewBox="1 -16 511.999 511" width="511pt" xmlns="http://www.w3.org/2000/svg"><path d="m480.683594 472.882812h-449.367188c-13.152344 0-23.816406-10.664062-23.816406-23.816406v-417.25c0-13.15625 10.664062-23.816406 23.816406-23.816406h449.367188c13.15625 0 23.816406 10.660156 23.816406 23.816406v417.25c0 13.152344-10.664062 23.816406-23.816406 23.816406zm0 0" fill="#f4f4f4"/><path d="m480.683594 8h-35c13.152344 0 23.816406 10.660156 23.816406 23.816406v417.25c0 13.152344-10.664062 23.816406-23.816406 23.816406h35c13.152344 0 23.816406-10.664062 23.816406-23.816406v-417.25c0-13.15625-10.664062-23.816406-23.816406-23.816406zm0 0" fill="#e8e8e8"/><path d="m7.5 97.460938h497v-65.644532c0-13.15625-10.664062-23.816406-23.816406-23.816406h-449.367188c-13.152344 0-23.816406 10.660156-23.816406 23.816406zm0 0" fill="#2cab72"/><path d="m480.683594 8h-35c13.152344 0 23.816406 10.660156 23.816406 23.816406v65.644532h35v-65.644532c0-13.15625-10.664062-23.816406-23.816406-23.816406zm0 0" fill="#279463"/><path d="m84.808594 52.730469c0 9.75-7.902344 17.652343-17.652344 17.652343s-17.65625-7.902343-17.65625-17.652343 7.90625-17.652344 17.65625-17.652344 17.652344 7.902344 17.652344 17.652344zm0 0" fill="#fa5d72"/><path d="m144.570312 52.730469c0 9.75-7.90625 17.652343-17.65625 17.652343s-17.652343-7.902343-17.652343-17.652343 7.902343-17.652344 17.652343-17.652344 17.65625 7.902344 17.65625 17.652344zm0 0" fill="#f6d867"/><path d="m204.328125 52.730469c0 9.75-7.902344 17.652343-17.652344 17.652343s-17.65625-7.902343-17.65625-17.652343 7.90625-17.652344 17.65625-17.652344 17.652344 7.902344 17.652344 17.652344zm0 0" fill="#5994ce"/><path d="m348.359375 341.808594-83.167969 85.417968c-5.035156 5.175782-13.347656 5.175782-18.382812 0l-83.164063-85.417968c-7.917969-8.128906-2.15625-21.773438 9.191407-21.773438h25c5.097656 0 9.234374-4.132812 9.234374-9.234375v-104.550781c0-7.09375 5.75-12.84375 12.839844-12.84375h72.183594c7.089844 0 12.839844 5.75 12.839844 12.84375v104.550781c0 5.101563 4.132812 9.234375 9.234375 9.234375h25c11.34375 0 17.105469 13.644532 9.191406 21.773438zm0 0" fill="#2cab72"/><path d="m348.359375 341.808594-83.167969 85.417968c-5.035156 5.175782-13.347656 5.175782-18.382812 0l-8.175782-8.398437 74.988282-77.019531c7.914062-8.128906 2.152344-21.773438-9.191406-21.773438h-25.003907c-5.097656 0-9.230469-4.132812-9.230469-9.234375v-104.550781c0-7.089844-5.75-12.839844-12.84375-12.839844h34.738282c7.09375 0 12.84375 5.75 12.84375 12.839844v104.550781c0 5.101563 4.132812 9.234375 9.230468 9.234375h25.003907c11.34375 0 17.105469 13.644532 9.191406 21.773438zm0 0" fill="#279463"/><path d="m92.308594 52.730469c0-13.871094-11.28125-25.152344-25.152344-25.152344s-25.15625 11.28125-25.15625 25.152344c0 13.871093 11.285156 25.152343 25.15625 25.152343 13.867188 0 25.152344-11.28125 25.152344-25.152343zm-25.152344 10.152343c-5.601562 0-10.15625-4.554687-10.15625-10.152343 0-5.597657 4.558594-10.152344 10.15625-10.152344s10.152344 4.554687 10.152344 10.152344c0 5.597656-4.554688 10.152343-10.152344 10.152343zm0 0"/><path d="m126.914062 77.882812c13.871094 0 25.15625-11.28125 25.15625-25.152343 0-13.871094-11.285156-25.152344-25.15625-25.152344-13.871093 0-25.152343 11.28125-25.152343 25.152344 0 13.871093 11.28125 25.152343 25.152343 25.152343zm0-35.304687c5.601563 0 10.15625 4.554687 10.15625 10.152344 0 5.597656-4.558593 10.152343-10.15625 10.152343-5.597656 0-10.152343-4.554687-10.152343-10.152343 0-5.597657 4.554687-10.152344 10.152343-10.152344zm0 0"/><path d="m186.675781 77.882812c13.867188 0 25.152344-11.28125 25.152344-25.152343 0-13.871094-11.285156-25.152344-25.152344-25.152344-13.871093 0-25.15625 11.28125-25.15625 25.152344 0 13.871093 11.285157 25.152343 25.15625 25.152343zm0-35.304687c5.597657 0 10.152344 4.554687 10.152344 10.152344 0 5.597656-4.554687 10.152343-10.152344 10.152343-5.601562 0-10.15625-4.554687-10.15625-10.152343 0-5.597657 4.554688-10.152344 10.15625-10.152344zm0 0"/><path d="m269.667969 60.230469h182.664062c4.144531 0 7.5-3.355469 7.5-7.5s-3.355469-7.5-7.5-7.5h-182.664062c-4.144531 0-7.5 3.355469-7.5 7.5s3.355469 7.5 7.5 7.5zm0 0"/><path d="m480.683594.5h-449.367188c-17.265625 0-31.316406 14.046875-31.316406 31.316406v417.25c0 17.265625 14.050781 31.316406 31.316406 31.316406h449.367188c17.265625 0 31.316406-14.050781 31.316406-31.316406v-417.25c0-17.269531-14.050781-31.316406-31.316406-31.316406zm0 464.882812h-449.367188c-8.996094 0-16.316406-7.320312-16.316406-16.316406v-344.105468h41.808594c4.144531 0 7.5-3.355469 7.5-7.5 0-4.140626-3.355469-7.5-7.5-7.5h-41.808594v-58.144532c0-8.996094 7.320312-16.316406 16.316406-16.316406h449.367188c8.996094 0 16.316406 7.320312 16.316406 16.316406v58.144532h-412.191406c-4.140625 0-7.5 3.359374-7.5 7.5 0 4.144531 3.359375 7.5 7.5 7.5h412.191406v344.105468c0 8.996094-7.320312 16.316406-16.316406 16.316406zm0 0"/><path d="m213.65625 177.164062h84.6875c4.144531 0 7.5-3.355468 7.5-7.5 0-4.140624-3.355469-7.5-7.5-7.5h-84.6875c-4.144531 0-7.5 3.359376-7.5 7.5 0 4.144532 3.355469 7.5 7.5 7.5zm0 0"/><path d="m233.101562 155.398438h45.796876c4.140624 0 7.5-3.359376 7.5-7.5 0-4.144532-3.359376-7.5-7.5-7.5h-45.796876c-4.140624 0-7.5 3.355468-7.5 7.5 0 4.140624 3.359376 7.5 7.5 7.5zm0 0"/><path d="m339.167969 312.535156h-25.003907c-.953124 0-1.730468-.777344-1.730468-1.734375v-104.550781c0-11.214844-9.125-20.339844-20.34375-20.339844h-72.179688c-11.21875 0-20.34375 9.125-20.34375 20.339844v41.371094c0 4.140625 3.359375 7.5 7.5 7.5 4.144532 0 7.5-3.359375 7.5-7.5v-41.371094c0-2.945312 2.398438-5.339844 5.34375-5.339844h72.179688c2.945312 0 5.34375 2.394532 5.34375 5.339844v104.550781c0 9.230469 7.503906 16.734375 16.730468 16.734375h25.003907c4.695312 0 7.128906 5.640625 3.816406 9.042969l-83.167969 85.417969c-2.09375 2.152344-5.542968 2.152344-7.632812 0l-83.167969-85.417969c-3.277344-3.363281-.933594-9.042969 3.816406-9.042969h25.003907c9.226562 0 16.730468-7.507812 16.730468-16.734375v-36.832031c0-4.140625-3.355468-7.5-7.5-7.5-4.144531 0-7.5 3.359375-7.5 7.5v36.832031c0 .957031-.777344 1.734375-1.730468 1.734375h-25.003907c-18 0-27.101562 21.628906-14.566406 34.507813l83.167969 85.417969c7.988281 8.203124 21.140625 8.203124 29.128906 0l83.167969-85.417969c12.558593-12.898438 3.40625-34.507813-14.5625-34.507813zm0 0"/></svg>