<svg id="Capa_1" enable-background="new 0 0 512 512" height="512" viewBox="0 0 512 512" width="512" xmlns="http://www.w3.org/2000/svg"><g><path d="m382.301 68.699-30-68.699h-96.301-195v512h390v-413.301z" fill="#f3f5f9"/></g><path d="m451 512v-413.301l-68.699-30-30-68.699h-96.301v512z" fill="#e1e6f0"/><path d="m451 98.699h-98.699v-98.699z" fill="#e63a57"/><g id="_x32_6-download_pdf_2_"><g><path d="m308.5 255v-60c0-24.814-20.186-45-45-45h-45v150h45c24.814 0 45-20.186 45-45zm-60-75h15c8.262 0 15 6.724 15 15v60c0 8.276-6.738 15-15 15h-15z" fill="#ff5959"/><path d="m398.5 180v-30h-75v150h30v-60h30v-30h-30v-30z" fill="#e63a57"/><g fill="#ff5959"><path d="m158.5 150h-45v150h30v-60h15c24.814 0 45-20.186 45-45s-20.186-45-45-45zm0 60h-15v-30h15c8.262 0 15 6.724 15 15s-6.738 15-15 15z"/><path d="m271 400.789v-68.789h-30v68.789l-19.395-19.394-21.21 21.21 55.605 55.606 55.605-55.606-21.21-21.21z"/></g></g></g><g fill="#e63a57"><path d="m290.395 381.395-19.395 19.394v-68.789h-15v126.211l55.605-55.606z"/><path d="m308.5 255v-60c0-24.814-20.186-45-45-45h-7.5v30h7.5c8.262 0 15 6.724 15 15v60c0 8.276-6.738 15-15 15h-7.5v30h7.5c24.814 0 45-20.186 45-45z"/></g></svg>