<svg id="Layer_1" enable-background="new 0 0 512 512" height="512" viewBox="0 0 512 512" width="512" xmlns="http://www.w3.org/2000/svg"><g><path d="m452.265 321.515h-44.078c-4.897 0-8.866-3.97-8.866-8.866v-35.435h61.811v35.435c-.001 4.896-3.97 8.866-8.867 8.866z" fill="#fe646f"/><path d="m430.226 277.214v35.167c0 5.045-4.09 9.134-9.134 9.134h30.905c5.045 0 9.134-4.089 9.134-9.134v-35.167z" fill="#fd4755"/><g fill="#ffd15b"><path d="m102.917 512h-22.905c-2.209 0-4-1.791-4-4v-166.912h30.905v166.912c0 2.209-1.791 4-4 4z"/><path d="m224.08 512h-22.905c-2.209 0-4-1.791-4-4v-166.912h30.905v166.912c0 2.209-1.791 4-4 4z"/><path d="m345.242 512h-22.905c-2.209 0-4-1.791-4-4v-166.912h30.905v166.912c0 2.209-1.791 4-4 4z"/></g><path d="m115.49 354.481h-48.05c-3.8 0-6.88-3.08-6.88-6.88v-32.438h61.811v32.437c-.001 3.8-3.082 6.881-6.881 6.881z" fill="#8ebac5"/><path d="m91.465 315.162v32.23c0 3.915-3.174 7.088-7.088 7.088h30.905c3.914 0 7.088-3.173 7.088-7.088v-32.23z" fill="#7ca1b1"/><path d="m236.652 354.481h-48.05c-3.8 0-6.88-3.08-6.88-6.88v-32.438h61.811v32.437c-.001 3.8-3.081 6.881-6.881 6.881z" fill="#8ebac5"/><path d="m212.627 315.162v32.23c0 3.915-3.174 7.088-7.088 7.088h30.905c3.914 0 7.088-3.173 7.088-7.088v-32.23z" fill="#7ca1b1"/><path d="m357.814 354.481h-48.05c-3.8 0-6.88-3.08-6.88-6.88v-32.438h61.811v32.437c0 3.8-3.081 6.881-6.881 6.881z" fill="#8ebac5"/><path d="m333.789 315.162v32.23c0 3.915-3.174 7.088-7.088 7.088h30.905c3.914 0 7.088-3.173 7.088-7.088v-32.23z" fill="#7ca1b1"/><path d="m122.37 327.696h-61.811l-10.302-44.637h82.415z" fill="#cbe5e8"/><path d="m101.766 283.059-10.301 44.637h30.905l10.302-44.637z" fill="#a8d3d8"/><path d="m243.532 327.696h-61.811l-10.301-44.637h82.414z" fill="#cbe5e8"/><path d="m222.929 283.059-10.302 44.637h30.905l10.302-44.637z" fill="#a8d3d8"/><path d="m364.695 327.696h-61.811l-10.302-44.637h82.414z" fill="#cbe5e8"/><path d="m344.091 283.059-10.302 44.637h30.906l10.301-44.637z" fill="#a8d3d8"/><path d="m492 290.609h-472c-11.046 0-20-8.954-20-20v-250.609c0-11.046 8.954-20 20-20h472c11.046 0 20 8.954 20 20v250.609c0 11.046-8.954 20-20 20z" fill="#678d98"/><path d="m491.396 0h-30.905c11.379 0 20.604 9.225 20.604 20.604v249.402c0 11.379-9.225 20.604-20.604 20.604h30.905c11.379 0 20.604-9.225 20.604-20.604v-249.402c0-11.379-9.225-20.604-20.604-20.604z" fill="#537983"/><circle cx="82.145" cy="234.866" fill="#01d0fb" r="17.801"/><circle cx="142.529" cy="234.866" fill="#01d0fb" r="17.801"/><circle cx="202.913" cy="234.866" fill="#01d0fb" r="17.801"/><path d="m434.24 214.793h-117.478c-9.093 0-16.464-7.371-16.464-16.464v-117.478c0-9.093 7.371-16.464 16.464-16.464h117.478c9.093 0 16.464 7.371 16.464 16.464v117.478c0 9.092-7.371 16.464-16.464 16.464z" fill="#cbe5e8"/></g></svg>